<?xml version="1.0" standalone="no"?>
<!DOCTYPE svg PUBLIC "-//W3C//DTD SVG 20010904//EN"
 "http://www.w3.org/TR/2001/REC-SVG-20010904/DTD/svg10.dtd">
<svg version="1.0" xmlns="http://www.w3.org/2000/svg"
 width="700.000000pt" height="700.000000pt" viewBox="0 0 700.000000 700.000000"
 preserveAspectRatio="xMidYMid meet">
<metadata>
Created by potrace 1.11, written by Peter Selinger 2001-2013
</metadata>
<g transform="translate(0.000000,700.000000) scale(0.100000,-0.100000)"
fill="#000000" stroke="none">
<path d="M3367 6964 c-1 -1 -51 -5 -110 -9 -60 -3 -116 -8 -125 -10 -9 -1 -44
-6 -77 -9 -33 -4 -67 -9 -75 -11 -8 -2 -33 -7 -55 -10 -83 -12 -110 -17 -116
-21 -3 -2 -19 -6 -36 -8 -197 -35 -516 -149 -762 -273 -500 -251 -922 -617
-1243 -1078 -66 -95 -170 -268 -207 -345 -15 -30 -33 -64 -39 -75 -32 -55
-119 -264 -163 -395 -58 -168 -125 -453 -144 -610 -3 -25 -7 -63 -10 -85 -24
-189 -24 -577 0 -740 2 -16 9 -66 15 -110 61 -444 256 -961 498 -1320 271
-403 567 -701 941 -949 119 -79 157 -102 276 -167 214 -117 504 -227 770 -293
136 -33 167 -39 250 -51 22 -4 67 -10 100 -15 158 -25 578 -34 730 -17 129 14
173 20 244 32 l74 13 79 -55 c173 -117 416 -215 598 -240 19 -3 55 -9 80 -13
45 -9 352 -7 400 2 14 3 45 8 70 13 144 24 349 98 485 176 566 324 874 962
770 1594 -23 141 -24 144 -60 252 -19 55 -35 106 -35 112 0 6 21 60 46 119 76
176 175 495 198 633 3 19 10 59 16 89 6 30 13 78 16 105 3 28 7 59 9 70 25
122 25 670 0 790 -2 11 -7 39 -9 63 -37 302 -148 670 -297 978 -205 424 -537
845 -882 1119 -21 17 -45 36 -52 43 -8 7 -65 49 -127 94 -389 278 -891 489
-1338 562 -100 17 -255 36 -335 42 -83 6 -363 12 -368 8z m433 -1602 c145 -27
307 -79 435 -142 126 -62 179 -92 183 -102 2 -4 8 -8 14 -8 5 0 40 -23 76 -50
156 -117 301 -264 400 -408 53 -76 65 -95 122 -202 83 -152 157 -385 175 -549
3 -25 8 -64 11 -86 7 -52 7 -257 0 -315 -3 -25 -8 -67 -12 -95 -6 -52 -18
-114 -34 -175 l-9 -35 -133 0 c-120 0 -207 -6 -263 -19 -172 -38 -283 -75
-410 -139 -405 -202 -695 -560 -812 -1002 -14 -55 -30 -103 -34 -106 -16 -10
-247 6 -298 21 -16 4 -31 6 -34 4 -2 -3 -15 0 -29 5 -14 5 -42 12 -63 15 -67
11 -245 75 -349 126 -498 241 -846 701 -950 1255 -3 17 -8 44 -12 60 -3 17 -7
111 -9 210 -2 136 1 207 15 290 42 266 124 478 267 695 124 188 283 350 471
480 165 114 393 213 599 260 187 43 484 48 683 12z"/>
</g>
</svg>
